<?xml version="1.0" encoding="utf-8"?>
<!-- Generator: Adobe Illustrator 24.2.1, SVG Export Plug-In . SVG Version: 6.00 Build 0)  -->
<svg version="1.1" id="Calque_1" xmlns="http://www.w3.org/2000/svg" xmlns:xlink="http://www.w3.org/1999/xlink" x="0px" y="0px"
	 viewBox="0 0 512 512" style="enable-background:new 0 0 512 512;" xml:space="preserve">
<style type="text/css">
	.st0{fill:#072D45;}
	.st1{fill:none;stroke:#072D45;stroke-width:23;stroke-linecap:round;stroke-linejoin:round;stroke-miterlimit:10;}
</style>
<path class="st0" d="M379.2,48H302c-8.7-19.8-28.4-32.6-50-32.6c-21.7,0-41.3,12.8-50,32.6h-77.1c-29.1,0-52.7,23.6-52.7,52.7v342
	c0,29.1,23.6,52.7,52.7,52.7h254.3c29.1,0,52.7-23.6,52.7-52.7v-342C431.9,71.6,408.3,48,379.2,48z M210.7,72
	c5.6,0,10.5-3.9,11.7-9.4c2.9-13.4,15.4-23.2,29.6-23.2c14.2,0,26.7,9.7,29.6,23.2c1.2,5.5,6.1,9.4,11.7,9.4h23.8v10.5
	c0,15.9-12.9,28.7-28.7,28.7h-72.8c-15.9,0-28.7-12.9-28.7-28.7V72H210.7z M407.9,442.6c0,15.9-12.9,28.7-28.7,28.7H124.9
	c-15.9,0-28.7-12.9-28.7-28.7v-342C96.2,84.8,109,72,124.9,72h38v10.5c0,29.1,23.6,52.7,52.7,52.7h72.8c29.1,0,52.7-23.6,52.7-52.7
	V72h38c15.9,0,28.7,12.9,28.7,28.7V442.6z"/>
<polyline class="st1" points="201.7,289 250.1,337.4 335.7,251.8 "/>
</svg>
