<?xml version="1.0" encoding="utf-8"?>
<!-- Generator: Adobe Illustrator 24.2.1, SVG Export Plug-In . SVG Version: 6.00 Build 0)  -->
<svg version="1.1" xmlns="http://www.w3.org/2000/svg" xmlns:xlink="http://www.w3.org/1999/xlink" x="0px" y="0px"
	 viewBox="0 0 512 512" style="enable-background:new 0 0 512 512;" xml:space="preserve">
<style type="text/css">
	.st0{fill:#072D45;}
</style>
<g id="Layer_1">
	<path class="st0" d="M511.2,188.3L511.2,188.3c-4.8-65.5-52.5-113-113.5-113c-62.6,0-113.5,50.9-113.5,113.5
		c0,60.4,47.4,109.9,107,113.4c1,11.1,0.2,41.4-28.8,83.6c-2.2,3.2-1.8,7.5,0.9,10.2c11.8,11.8,19.2,19.3,24.3,24.5
		c6.8,6.9,9.8,10,14.4,14.1c1.5,1.4,3.5,2.1,5.4,2.1c1.9,0,3.7-0.7,5.2-2C463.1,390.7,519.3,299.7,511.2,188.3z M407.3,417.8
		c-2.2-2.2-4.7-4.7-8.4-8.5c-4.5-4.5-10.5-10.7-19.8-20c35.2-54.3,28.6-93,25.7-98.5c-1.4-2.6-4.2-4.4-7.2-4.4
		c-53.8,0-97.5-43.8-97.5-97.5c0-53.8,43.8-97.5,97.5-97.5c52.4,0,93.4,41.3,97.6,98.1v0C504.4,314.8,429.9,396.2,407.3,417.8z"/>
</g>
<g id="Calque_2">
	<path class="st0" d="M113.5,75.3C50.9,75.3,0,126.2,0,188.8c0,60.4,47.4,109.9,107,113.4c1,11.1,0.3,41.4-28.8,83.6
		c-2.2,3.2-1.8,7.5,0.9,10.2c11.9,11.9,19.2,19.4,24.4,24.6c6.7,6.8,9.8,10,14.3,14c1.5,1.4,3.4,2.1,5.4,2.1c1.9,0,3.7-0.7,5.2-2
		c50.6-44,106.8-135,98.7-246.5C222.3,122.8,174.6,75.3,113.5,75.3z M123.2,417.8c-2.2-2.1-4.7-4.7-8.3-8.4
		c-4.5-4.5-10.6-10.8-19.8-20.1c35.2-54.3,28.6-93,25.7-98.5c-1.4-2.6-4.2-4.4-7.2-4.4c-53.8,0-97.5-43.8-97.5-97.5
		c0-53.8,43.8-97.5,97.5-97.5c52.4,0,93.4,41.3,97.6,98.1C220.3,314.8,145.7,396.2,123.2,417.8z"/>
</g>
</svg>
