<?xml version="1.0" encoding="utf-8"?>
<!-- Generator: Adobe Illustrator 24.2.1, SVG Export Plug-In . SVG Version: 6.00 Build 0)  -->
<svg version="1.1" xmlns="http://www.w3.org/2000/svg" xmlns:xlink="http://www.w3.org/1999/xlink" x="0px" y="0px"
	 viewBox="0 0 512 512" style="enable-background:new 0 0 512 512;" xml:space="preserve">
<style type="text/css">
	.heart{fill:#FF3333;}
</style>
<g>
	<path class="st0" d="M488,327.7h-36.7c-33.2-31.5-85.3-31.5-118.6,0H256c-15.6,0-29,11.3-31.6,26.7l-69.7-23.2
		c-17-5.7-35.4,3.5-41.1,20.5c-1.1,3.3-1.7,6.8-1.7,10.3v0.5c-0.1,11.1,5.6,21.5,15,27.5l138.9,88.4c18.3,11.6,40.7,15.1,61.7,9.6
		L449,456h39c4.4,0,8-3.6,8-8V335.7C496,331.3,492.4,327.7,488,327.7z M480,440h-32c-0.7,0-1.4,0.1-2,0.3l-122.4,32.2
		c-16.7,4.4-34.5,1.6-49.1-7.7l-138.9-88.4c-4.8-3.1-7.7-8.3-7.6-14v-0.5c0-9.1,7.3-16.4,16.4-16.5c1.8,0,3.6,0.3,5.3,0.9l76.8,25.6
		c4.9,12,16.6,19.8,29.6,19.8h80c4.4,0,8-3.6,8-8s-3.6-8-8-8h-80c-7.3,0-13.7-4.9-15.5-12v0c-2.2-8.6,3-17.3,11.6-19.5
		c1.3-0.3,2.6-0.5,3.9-0.5h80c2.1,0,4.2-0.8,5.7-2.3l0.8-0.8c27.4-27.3,71.7-27.3,99.1,0l0.8,0.8c1.5,1.5,3.5,2.3,5.7,2.3h32V440z"
		/>
</g>
<g>
	<path class="st0" d="M149.5,229.2c0.1,0,0.3,0.1,0.4,0.1c5.3,1.1,10.6,1.7,16,1.7c0.4,0,0.7,0,1.1,0c5.5,11,17.6,17.1,29.8,15
		l9.5-1.6c5.5,3.9,12.4,5.4,19.1,4.3l19.1-3.3c1.6,3,3.7,5.7,6.1,8l57.8,57.8c3.1,3.1,8.2,3.1,11.3,0c0,0,0,0,0,0l57.8-57.8
		c14.1-14.1,14.1-36.9,0-50.9s-36.9-14.1-50.9,0L314,215.1l-3.4-3.4c11.8-10.3,14.8-27.4,7.3-41.1c0.2-0.5,0.4-1,0.5-1.5l3.3-15.4
		c2.9-13.5-0.7-27.6-9.8-38.1l-29.6-34.1c-8.5-9.9-21-15.4-34-15.1l-120.9,2.3L27.6,19c-4-2-8.8-0.4-10.7,3.6
		c-0.6,1.1-0.8,2.3-0.8,3.6v120c0,3.1,1.8,6,4.7,7.3l62.2,28.1l12,14.7c13.6,16.6,32.4,28.1,53.3,32.7
		C148.7,229,149.1,229.1,149.5,229.2z M185.5,228.4c3.3-0.9,6.6-2,9.8-3.3c0.1,1.6,0.4,3.2,0.8,4.8l-2,0.3
		C191.1,230.7,188.1,230.1,185.5,228.4L185.5,228.4z M222.7,232.9c-3.8,0.7-7.7-1-9.8-4.3c-1.7-2.6-2.1-5.8-1.1-8.7
		c0.5-1.6,1.5-3.1,2.8-4.2l7.7-3.8l20.4,2.5c-1.8,4.3-2.7,9-2.7,13.6c0,0.6,0,1.3,0.1,1.9L222.7,232.9z M308.3,232.1
		c3.1,3.1,8.2,3.1,11.3,0c0,0,0,0,0,0l18.2-18.2c7.8-7.8,20.5-7.8,28.3,0c7.8,7.8,7.8,20.5,0,28.3L314,294.3l-52.1-52.1
		c-6.9-6.9-7.8-17.8-2.2-25.7l25.2,3.1c3.5,0.4,7,0.3,10.5-0.4L308.3,232.1z M107.4,186.2L94.2,170c-0.8-1-1.8-1.7-2.9-2.2L32,141
		V39l89.9,44.8c1.2,0.6,2.4,0.9,3.7,0.8l122.9-2.3c0.2,0,0.4,0,0.5,0c8.1,0,15.8,3.5,21.1,9.6l29.6,34.1c5.8,6.7,8.1,15.6,6.2,24.3
		l-1.5,7.1c-2.7-1.4-5.6-2.5-8.6-3.1l-14.6-3.1l1.7-7.8c0.9-4.3-1.8-8.6-6.1-9.5c-4.3-0.9-8.6,1.8-9.5,6.1l-1.7,7.8l-11.5-2.5
		l-9-22.8c-1.6-4.1-6.3-6.1-10.4-4.5c-4.1,1.6-6.1,6.3-4.5,10.4l5.1,12.9l-16.8-3.6c-4.3-1-8.6,1.7-9.6,6c-1,4.3,1.7,8.6,6,9.6
		c0.1,0,0.1,0,0.2,0l77.3,16.6c9.2,2,15.1,11.1,13.1,20.3c-1.9,8.6-10,14.4-18.8,13.4l-65-7.9c-1.6-0.2-3.1,0.1-4.5,0.8l-6.2,3.1
		c0,0,0,0-0.1,0c-1.7,0.6-3.3,1.4-4.8,2.4l-13.4,6.7c-12.1,6-25.9,7.8-39.2,5.1c-0.2-0.1-0.5-0.1-0.7-0.2c-0.5-0.1-1-0.2-1.5-0.3
		C134.3,209.5,118.6,199.9,107.4,186.2L107.4,186.2z"/>
	<path class="st1" d="M308.3,232.1c3.1,3.1,8.2,3.1,11.3,0c0,0,0,0,0,0l18.2-18.2c7.8-7.8,20.5-7.8,28.3,0c7.8,7.8,7.8,20.5,0,28.3
		L314,294.3l-52.1-52.1c-6.9-6.9-7.8-17.8-2.2-25.7l25.2,3.1c3.5,0.4,7,0.3,10.5-0.4L308.3,232.1z"/>
</g>
</svg>
