<?xml version="1.0" encoding="utf-8"?>
<!-- Generator: Adobe Illustrator 24.2.1, SVG Export Plug-In . SVG Version: 6.00 Build 0)  -->
<svg version="1.1" id="Capa_1" xmlns="http://www.w3.org/2000/svg" xmlns:xlink="http://www.w3.org/1999/xlink" x="0px" y="0px"
	 viewBox="0 0 512 512" style="enable-background:new 0 0 512 512;" xml:space="preserve">
<style type="text/css">
	.st0{fill:#072D45;}
	.st1{fill:none;stroke:#072D45;stroke-width:20;stroke-linecap:round;stroke-miterlimit:10;}
</style>
<g id="XMLID_1248_">
	<g id="XMLID_1699_">
		<path id="XMLID_290_" class="st0" d="M153.9,511.9c-5.5,0-10-4.5-10-10v-85.8c-13.2-14.8-20.5-33.8-20.5-53.8v-89.2l-70.1-89.8
			c-11.1-14.3-9.9-34.6,2.9-47.4c6.8-6.8,15.8-10.5,25.4-10.5c9.6,0,18.6,3.7,25.4,10.5l46.9,46.9l-23.5-87.9
			c-2.6-9.8-1.3-20.1,3.8-28.9s13.3-15.1,23.1-17.8c20.3-5.4,41.2,6.7,46.7,27l13.5,50.6V38.1c0-21,17.1-38.1,38.1-38.1
			s38.1,17.1,38.1,38.1v87.6l13.6-50.6c5.4-20.3,26.4-32.4,46.7-26.9c9.8,2.6,18.1,9,23.1,17.8s6.4,19.1,3.8,28.9l-8.7,32.3
			c-1.4,5.3-6.9,8.5-12.3,7.1c-5.3-1.4-8.5-6.9-7-12.3l8.7-32.3c1.3-4.7,0.6-9.6-1.8-13.7c-2.4-4.2-6.3-7.2-11-8.4
			c-9.6-2.6-19.6,3.2-22.2,12.8l-33.2,123.9c-1.3,4.8-6,8-11,7.3c-5-0.7-8.7-4.9-8.7-9.9V38.1c0-10-8.1-18.1-18.1-18.1
			s-18.1,8.1-18.1,18.1v163.5c0,5-3.7,9.3-8.7,9.9c-5,0.7-9.7-2.5-11-7.3L184.6,80.3c-2.6-9.7-12.5-15.4-22.2-12.8
			c-4.7,1.3-8.6,4.3-11,8.4c-2.4,4.2-3.1,9.1-1.8,13.8l33.2,123.9c1.2,4.4-0.7,9-4.7,11.2c-3.9,2.3-8.9,1.6-12.1-1.6L92.8,150
			c-3-3-7-4.6-11.2-4.6s-8.2,1.6-11.2,4.6c-5.7,5.7-6.2,14.7-1.3,21l72.2,92.5c1.4,1.8,2.1,3.9,2.1,6.2v92.7
			c0,16.1,6.3,31.3,17.6,42.8c1.9,1.9,2.9,4.4,2.9,7v89.8C163.9,507.5,159.4,511.9,153.9,511.9L153.9,511.9z"/>
	</g>
	<g id="XMLID_670_">
		<path id="XMLID_289_" class="st0" d="M306.6,512c-5.5,0-10-4.5-10-10v-76.5c0-3.8,2.1-7.3,5.5-9c13.7-6.8,24.9-18.2,31.6-31.9
			l11-22.6c0.9-1.8,2.3-3.3,4-4.3L453.9,297c11.9-6.9,16.1-22.2,9.2-34.2c-6.2-10.7-19.4-15.3-30.9-10.7L369.5,277
			c-13.1,5.2-28,2.1-38-7.8c-9-8.9-12.5-22-9.2-34.3l7-26c1.4-5.3,6.9-8.5,12.3-7.1c5.3,1.4,8.5,6.9,7,12.3l-7,26
			c-1.4,5.3,0.1,11,4,14.9c4.3,4.3,10.8,5.6,16.5,3.4l62.6-24.9c20.6-8.2,44.5,0.1,55.6,19.3c6,10.4,7.6,22.5,4.5,34.2
			c-3.1,11.6-10.6,21.3-21,27.3l-102.5,59.2l-9.6,19.8c-7.7,15.8-20,29.2-35.1,38.1V502C316.6,507.5,312.1,512,306.6,512L306.6,512z
			"/>
	</g>
	<g>
		<line class="st1" x1="22.9" y1="51" x2="10" y2="51"/>
		<line class="st1" x1="92" y1="51" x2="79" y2="51"/>
		<line class="st1" x1="51" y1="23.4" x2="51" y2="10.4"/>
		<line class="st1" x1="51" y1="92.4" x2="51" y2="79.5"/>
	</g>
	<g>
		<line class="st1" x1="22.9" y1="448" x2="10" y2="448"/>
		<line class="st1" x1="92" y1="448" x2="79" y2="448"/>
		<line class="st1" x1="51" y1="420.4" x2="51" y2="407.4"/>
		<line class="st1" x1="51" y1="489.4" x2="51" y2="476.5"/>
	</g>
	<g>
		<line class="st1" x1="432.9" y1="133.4" x2="420" y2="133.4"/>
		<line class="st1" x1="502" y1="133.4" x2="489" y2="133.4"/>
		<line class="st1" x1="461" y1="105.8" x2="461" y2="92.8"/>
		<line class="st1" x1="461" y1="174.8" x2="461" y2="161.9"/>
	</g>
	<g id="XMLID_1256_">
		<path id="XMLID_276_" class="st0" d="M350.7,178.1c-2.6,0-5.2-1.1-7.1-2.9c-1.9-1.9-2.9-4.4-2.9-7.1s1.1-5.2,2.9-7.1
			c1.9-1.9,4.4-2.9,7.1-2.9c2.6,0,5.2,1.1,7.1,2.9c1.9,1.9,2.9,4.4,2.9,7.1s-1.1,5.2-2.9,7.1C355.9,177,353.4,178.1,350.7,178.1z"/>
	</g>
</g>
</svg>
