<?xml version="1.0" encoding="utf-8"?>
<!-- Generator: Adobe Illustrator 27.6.1, SVG Export Plug-In . SVG Version: 6.00 Build 0)  -->
<svg version="1.1" id="Calque_1" xmlns="http://www.w3.org/2000/svg" xmlns:xlink="http://www.w3.org/1999/xlink" x="0px" y="0px"
	 viewBox="0 0 300 300" style="enable-background:new 0 0 300 300;" xml:space="preserve">
<style type="text/css">
	.st0{fill:#FFFFFF;}
</style>
<g>
	<path class="st0" d="M81,151.1c-1.7,0.1-4.9,5.7-4.9,14.8c0,9.2,3.2,14.8,4.9,14.8c0.1,0,0.2,0,0.3,0l4.2,0.5
		c-1.4-4.3-2-8.9-2-13.4c-0.1-5.5,0.9-10.9,3.1-16L81,151.1z"/>
	<path class="st0" d="M91.9,152.4c-2.5,4.7-3.7,10-3.4,15.4c-0.2,4.8,0.8,9.6,2.6,14.1l4.2,0.5c-1.4-4.3-2-8.9-2-13.4
		c-0.1-5.5,0.9-11,3.1-16L91.9,152.4z"/>
	<path class="st0" d="M165.1,116.6c-0.1,0-0.2,0-0.3,0c-0.6,0.2-2.5,3.2-2.5,8.6c0,5.4,1.8,8.3,2.5,8.6l56-6.7
		c-1.3-2.9-1.9-6.1-1.9-9.3c0-2.7,0.4-5.3,1.3-7.9L165.1,116.6z"/>
	<path class="st0" d="M135.4,157.5c-0.1,0-0.1,0-0.2,0l-33.4-3.9c-2.5,4.7-3.7,10-3.4,15.4c-0.1,4.8,0.8,9.6,2.6,14l34.1,4
		c-1.6-4.6-2.4-9.4-2.3-14.2C132.6,167.6,133.6,162.4,135.4,157.5C135.4,157.5,135.4,157.5,135.4,157.5z"/>
	<path class="st0" d="M81.1,124l8.3,1c-0.6-2.7-0.9-5.5-0.9-8.3c0-3,0.5-6,1.5-8.8l-8.9-1v0c-0.7,0.3-2.4,3.3-2.4,8.6
		C78.6,120.8,80.4,123.8,81.1,124z"/>
	<path class="st0" d="M140.8,146.2c-0.1-3.4,0.5-6.8,1.6-10l-49.5-5.8c0,0-0.1,0-0.1,0L81,129c-0.7,0.3-2.4,3.3-2.4,8.6
		c0,5.4,1.8,8.4,2.5,8.6l9.8,1.2c0,0,0,0,0.1,0l9.8,1.2h0.1l30.5,3.6c-0.7-2.7-1.1-5.5-1.1-8.4c0-1.8,0.2-3.7,0.6-5.5
		c0.3-1.3,1.6-2.2,3-1.8c1.3,0.3,2.2,1.6,1.8,3c-0.3,1.4-0.5,2.9-0.5,4.4c-0.1,3.1,0.4,6.1,1.6,9l4.7,0.6
		C141,150.9,140.7,148.6,140.8,146.2z"/>
	<path class="st0" d="M100.2,126.3c-0.5-2.4-0.7-4.8-0.7-7.2c0-1.8,0.1-3.5,0.3-5.2c0.2-1.3,1.4-2.3,2.8-2.1
		c1.3,0.2,2.3,1.4,2.1,2.8c-0.2,1.5-0.3,3.1-0.3,4.6c0,2.6,0.3,5.2,0.9,7.8l53.3,6.3c-0.9-2.5-1.3-5.2-1.3-7.9
		c-0.1-3.2,0.6-6.3,1.9-9.3l-54.7-6.5h0l-9.6-1.1c-1,2.6-1.6,5.4-1.6,8.2c-0.1,3.1,0.4,6.1,1.3,9L100.2,126.3z"/>
	<path class="st0" d="M105.1,104.6l59.7,7l40.7-4.9l-58.8-6.9c-2.7-0.3-5.4-0.3-8.1,0l-36.6,4.4L105.1,104.6L105.1,104.6z"/>
	<path class="st0" d="M216.5,168.3c-0.1-4.8,0.8-9.5,2.7-13.9l-54.1,6.5c-0.1,0-0.2,0-0.3,0c-1.7,0-4.9,5.6-4.9,14.8
		c0,9.1,3,14.3,4.7,14.7l0.2,0l19.7-2.4v-14.7l-0.4,0c-0.1,0-0.2,0-0.3,0c-1.2,0-2.3-0.9-2.4-2.2c-0.2-1.4,0.8-2.6,2.2-2.7l3.1-0.4
		c0,0,0,0,0.1,0l14.8-1.8h0l3.7-0.4c1.4-0.2,2.6,0.8,2.7,2.2s-0.8,2.6-2.2,2.7l-1.5,0.2v14.7l15.9-1.9
		C217.5,179.1,216.3,173.7,216.5,168.3z"/>
	<path class="st0" d="M220.2,132.2l-55.2,6.6c-0.1,0-0.2,0-0.3,0c-0.6,0.2-2.5,3.2-2.5,8.6c0,5.4,1.8,8.3,2.5,8.6l56.1-6.7
		c-1.3-2.9-2-6.1-1.9-9.3C218.9,137.3,219.4,134.7,220.2,132.2z"/>
	<path class="st0" d="M140.6,158.1c-2.1,4.6-3.1,9.6-2.9,14.6c-0.2,5.2,0.8,10.3,3.1,14.9l4.2,0.5c-1.6-4.6-2.4-9.5-2.3-14.4
		c-0.1-5.2,0.8-10.3,2.6-15.1L140.6,158.1z"/>
	<path class="st0" d="M273.8,118.9c0-61.2-49.6-110.8-110.8-110.8S52.1,57.7,52.1,118.9c0,5.9,0.5,11.8,1.4,17.4
		c-16.8,16.1-27.2,38.8-27.2,64c0,49,39.8,88.8,88.8,88.8c27.2,0,51.6-12.2,67.9-31.5c8.3,4.8,17.9,7.5,28.2,7.5
		c31.2,0,56.5-25.3,56.5-56.5c0-11.9-3.7-22.9-10-32C267.8,159.8,273.8,140,273.8,118.9z M226.4,148.6c0.1,0,0.2,0,0.3,0
		c1.2,0.1,2.2,1.2,2.2,2.4c0,1.4-1.1,2.5-2.5,2.5c-1.9,0.4-4.9,5.7-4.9,14.8c0,9.2,3.2,14.8,4.9,14.8c1.2,0,2.3,0.9,2.4,2.2
		c0.2,1.4-0.8,2.6-2.2,2.7l-22.5,2.7v9.6c0,0.8-0.4,1.5-1,2c-1.1,0.8-2.6,0.6-3.4-0.5l-5.2-6.9l-5.5,9.2c-0.4,0.7-1.2,1.2-2.1,1.2
		c-0.2,0-0.4,0-0.7-0.1c-1.1-0.3-1.8-1.3-1.8-2.4v-9.7l-19.4,2.3c-0.1,0-0.2,0-0.3,0c-0.1,0-0.2,0-0.3,0l-83.6-9.8
		c-6.4-0.2-9.7-10-9.7-19.7c0-7.1,1.8-14.2,5.2-17.6c-1.9-3.2-2.8-7-2.7-10.7c-0.2-3.9,0.9-7.8,3-11.1c-2.1-3.3-3.1-7.2-3-11.1
		c0-6.6,2.4-13.2,7.1-13.5h0l57.2-6.9c3.1-0.4,6.2-0.4,9.3,0l79.4,9.3c1.1,0.2,2,1.1,2.1,2.3c0.1,1.4-0.9,2.5-2.3,2.6l0,0
		c-0.7,0.2-2.5,3.2-2.5,8.6s1.8,8.4,2.5,8.6c0,0,0,0,0,0c1.3,0,2.4,1.1,2.4,2.5c0,1.3-1.1,2.4-2.4,2.4l0,0c-0.7,0.2-2.5,3.2-2.5,8.6
		C223.9,145.4,225.7,148.4,226.4,148.6z"/>
	<path class="st0" d="M189.4,193.9l2.8-4.7c0.4-0.7,1.2-1.1,2-1.2c0.8,0,1.6,0.3,2.1,1l3,3.9v-21.4l-9.9,1.2V193.9z"/>
	<path class="st0" d="M150.4,159.3c-2,4.6-3,9.5-2.8,14.5c-0.2,5.2,0.8,10.4,3.2,15.1l6.9,0.8c-1.9-4.4-2.8-9.1-2.7-13.9
		c-0.2-5.4,1-10.7,3.6-15.5L150.4,159.3z"/>
	<path class="st0" d="M147.5,136.8c-1.4,2.9-2,6.2-1.8,9.4c0,2.6,0.3,5.2,1.1,7.7l11.9,1.4c-0.9-2.5-1.3-5.2-1.3-7.9
		c-0.1-3.2,0.6-6.3,1.9-9.3L147.5,136.8z"/>
</g>
</svg>
