<?xml version="1.0" encoding="utf-8"?>
<!-- Generator: Adobe Illustrator 27.6.1, SVG Export Plug-In . SVG Version: 6.00 Build 0)  -->
<svg version="1.1" id="booksvg" xmlns="http://www.w3.org/2000/svg" xmlns:xlink="http://www.w3.org/1999/xlink" x="0px" y="0px"
	 viewBox="0 0 300 300" style="enable-background:new 0 0 300 300;" xml:space="preserve">
<style type="text/css">
	.st0{fill:url(#SVGID_1_);}
</style>
<g>
	<linearGradient id="SVGID_1_" gradientUnits="userSpaceOnUse" x1="216.0957" y1="271.023" x2="81.5336" y2="37.9545">
		<stop  offset="0" style="stop-color:#A1C4FD"/>
		<stop  offset="1" style="stop-color:#C2E9FB"/>
	</linearGradient>
	<path class="st0" d="M273.8,118.9C273.8,57.7,224.2,8.1,163,8.1S52.1,57.7,52.1,118.9c0,5.9,0.5,11.8,1.4,17.4
		c-16.8,16.1-27.2,38.8-27.2,64c0,49,39.8,88.8,88.8,88.8c27.2,0,51.6-12.2,67.9-31.5c8.3,4.8,17.9,7.5,28.2,7.5
		c31.2,0,56.5-25.3,56.5-56.5c0-11.9-3.7-22.9-10-32C267.8,159.8,273.8,140,273.8,118.9z"/>
</g>
</svg>
