<?xml version="1.0" encoding="utf-8"?>
<!-- Generator: Adobe Illustrator 27.6.1, SVG Export Plug-In . SVG Version: 6.00 Build 0)  -->
<svg version="1.1" id="foodsvg" xmlns="http://www.w3.org/2000/svg" xmlns:xlink="http://www.w3.org/1999/xlink" x="0px" y="0px"
	 viewBox="0 0 300 300" style="enable-background:new 0 0 300 300;" xml:space="preserve">
<style type="text/css">
	.st0{fill:url(#SVGID_1_);}
</style>
<g>
	<linearGradient id="SVGID_1_" gradientUnits="userSpaceOnUse" x1="276.0188" y1="62.9687" x2="69.0062" y2="269.9813">
		<stop  offset="0" style="stop-color:#0ABAC2"/>
		<stop  offset="1" style="stop-color:#B2DE94"/>
	</linearGradient>
	<path class="st0" d="M250,184.6c3.6-10.7,5.6-22.1,5.6-34c0-10.8-1.6-21.3-4.7-31.2c9.7-10.8,15.5-25.1,15.5-40.7
		c0-33.8-27.4-61.2-61.2-61.2c-21.5,0-40.3,11-51.2,27.8c-1.3-0.1-2.5-0.1-3.8-0.1C92,45.2,44.8,92.3,44.8,150.5c0,0.2,0,0.4,0,0.6
		c-12.2,12.1-19.7,28.8-19.7,47.3c0,36.9,29.9,66.8,66.8,66.8c13.8,0,26.7-4.2,37.3-11.4c6.8,1.4,13.8,2.1,21,2.1
		c8.3,0,16.4-1,24.1-2.8c8.7,17.4,26.7,29.4,47.5,29.4c29.3,0,53-23.7,53-53C274.8,210.6,264.9,193.9,250,184.6z"/>
</g>
</svg>
