<?xml version="1.0" encoding="utf-8"?>
<!-- Generator: Adobe Illustrator 27.6.1, SVG Export Plug-In . SVG Version: 6.00 Build 0)  -->
<svg version="1.1" id="foodsvg" xmlns="http://www.w3.org/2000/svg" xmlns:xlink="http://www.w3.org/1999/xlink" x="0px" y="0px"
	 viewBox="0 0 300 300" style="enable-background:new 0 0 300 300;" xml:space="preserve">
<g>
	<path class="donationItem" d="M111,171.4c0.2,1.4,0.5,3,0.8,4.7c1.7,0.8,11.8,5.5,38.2,5.5c26.3,0,36.6-4.7,38.2-5.5
		c0.4-1.7,0.6-3.3,0.8-4.7c-7.6,4.3-23.7,6.2-39,6.2C134.7,177.6,118.6,175.6,111,171.4z"/>
	<polygon class="donationItem" points="157.9,153.9 157.9,161.5 165,160.3 162.5,153.9 	"/>
	<path class="donationItem" d="M90.9,152c0,2.2,1.8,3.9,3.9,3.9c1.1,0,2,0.9,2,2v49.3c0,1.1,0.9,2,2,2s2-0.9,2-2v-49.3c0-1.1,0.9-2,2-2
		c2.2,0,3.9-1.8,3.9-3.9V148H90.9V152z"/>
	<path class="donationItem" d="M145.3,121.1L130,104c-0.7-0.8-0.7-2.1,0.1-2.8s2.1-0.7,2.8,0.1l16.5,18.3c2.4-2.4,3.8-5.7,3.8-9.1
		c-0.6-7.4-6.4-13.2-13.8-13.8c-5.1,0-15.3-3.4-20-5.1c-0.3,5.3-0.2,18.1,7.2,25C130.9,120.7,137.2,122.1,145.3,121.1z"/>
	<polygon class="donationItem" points="138.5,139.6 139.5,144.9 145.2,141.5 143.2,138.4 	"/>
	<path class="donationItem" d="M113,180.8c0.7,2.4,1.6,4.7,2.6,6.9c6.5,14.2,18.1,21.4,34.4,21.4s27.9-7.2,34.4-21.4c1-2.2,1.9-4.6,2.6-6.9
		c-5.1,1.8-16.4,4.7-37,4.7C129.4,185.5,118.2,182.6,113,180.8z M136.2,203.2c-0.2,0-0.5-0.1-0.7-0.1c-6.1-2.2-10.9-7-13-13.2
		c-0.3-1.1,0.4-2.1,1.4-2.4c1.1-0.3,2.1,0.4,2.4,1.4c0,0.3,2,7,10.6,10.5c0.8,0.3,1.2,1,1.2,1.8
		C138.2,202.3,137.3,203.2,136.2,203.2z M144.1,205.2h-3.9v-3.9h3.9V205.2z"/>
	<path class="donationItem" d="M250,184.6c3.6-10.7,5.6-22.1,5.6-34c0-10.8-1.6-21.3-4.7-31.2c9.7-10.8,15.5-25.1,15.5-40.7
		c0-33.8-27.4-61.2-61.2-61.2c-21.5,0-40.3,11-51.2,27.8c-1.3-0.1-2.5-0.1-3.8-0.1C92,45.2,44.8,92.3,44.8,150.5c0,0.2,0,0.4,0,0.6
		c-12.2,12.1-19.7,28.8-19.7,47.3c0,36.9,29.9,66.8,66.8,66.8c13.8,0,26.7-4.2,37.3-11.4c6.8,1.4,13.8,2.1,21,2.1
		c8.3,0,16.4-1,24.1-2.8c8.7,17.4,26.7,29.4,47.5,29.4c29.3,0,53-23.7,53-53C274.8,210.6,264.9,193.9,250,184.6z M164.1,117.1
		c12.2-6,18.6-4.3,19.2-4.1c1,0.3,1.5,1.3,1.3,2.3c-1.1,5.1-1.7,10.2-2,15.4c0,9.5-9.2,13.8-17.7,13.8c-4.7,0-8.5-3.3-9.7-8.6
		C153.5,128.3,157.2,120.6,164.1,117.1z M169.6,161.1c0.2,0.6,0.2,1.2-0.1,1.7c-0.3,0.5-0.8,0.9-1.4,1l-11.8,2h-0.3
		c-1.1,0-2-0.9-2-2V152c0-1.1,0.9-2,2-2h7.9c0.8,0,1.5,0.5,1.8,1.3L169.6,161.1z M115.7,88.6c0.1-0.6,0.4-1.1,0.9-1.4
		c0.5-0.3,1.1-0.4,1.7-0.1c4.2,1.6,16.2,5.8,21,5.8c9,0,17.7,8.8,17.7,17.7c0,5.3-2.6,10.3-6.9,13.5c-3.2,0.7-6.5,1.1-9.9,1.3
		c-6.1,0.3-12-1.8-16.5-5.9C112.9,109.2,115.6,89.4,115.7,88.6z M149,143.8l-9.9,5.9c-0.3,0.2-0.7,0.3-1,0.3c-0.3,0-0.6-0.1-0.8-0.2
		c-0.6-0.3-1-0.8-1.1-1.4l-2-9.9c0,0,0,0,0,0c-0.2-1.1,0.4-2.1,1.5-2.3l7.9-2c0.8-0.2,1.7,0.2,2.1,0.9l3.9,5.9c0,0,0,0,0,0.1
		C150.3,142,150,143.2,149,143.8z M104.7,207.2c0,3.3-2.6,5.9-5.9,5.9s-5.9-2.6-5.9-5.9v-47.6c-3.5-0.9-5.9-4-5.9-7.6v-19.7
		c0-1.1,0.9-2,2-2c1.1,0,2,0.9,2,2v11.8h5.9v-11.8c0-1.1,0.9-2,2-2s2,0.9,2,2v11.8h5.9v-11.8c0-1.1,0.9-2,2-2c1.1,0,2,0.9,2,2V152
		c0,3.6-2.4,6.7-5.9,7.6V207.2z M193.4,165.9c0,2.5-1.5,47.2-43.4,47.2s-43.4-44.7-43.4-47.1v-0.1c0.2-8.1,22.6-11.8,43.4-11.8
		c1.1,0,2,0.9,2,2c0,1.1-0.9,2-2,2c-25.5,0-39.4,5.2-39.4,7.9c0,2.7,14,7.9,39.4,7.9c25.5,0,39.4-5.2,39.4-7.9c0,0-0.3-3.3-18-5.9
		c-1.1-0.2-1.8-1.2-1.7-2.3s1.2-1.8,2.3-1.7c14.7,2.1,21.4,5.2,21.4,9.7V165.9z M150,165.8c0,3.3-2.6,5.9-5.9,5.9s-5.9-2.6-5.9-5.9
		c0-3.3,2.6-5.9,5.9-5.9S150,162.5,150,165.8z M207.2,159.7v47.4c0,3.3-2.6,5.9-5.9,5.9c-3.3,0-5.9-2.6-5.9-5.9v-47.4
		c-3.9-3.4-6.1-8.5-5.9-13.7c0-8.7,5.3-15.8,11.8-15.8s11.8,7.1,11.8,15.8C213.3,151.3,211.1,156.3,207.2,159.7z"/>
	<path class="donationItem" d="M160.4,137.9l8.9-12.4c0,0,0,0,0,0c0.6-0.9,1.9-1.1,2.8-0.4c0.9,0.6,1.1,1.9,0.5,2.7l-8.9,12.5
		c0.5,0.1,0.9,0.2,1.4,0.2c6.6,0,13.8-3.1,13.8-9.9c0.2-4.7,0.7-9.4,1.6-14.1h-0.5c-5,0.3-9.8,1.7-14.1,4.1
		c-5.2,2.7-7.9,8.6-6.7,14.3C159.4,136,159.8,137,160.4,137.9z"/>
	<path class="donationItem" d="M201.3,134.2c-4.3,0-7.9,5.4-7.9,11.8c0,4.8,2,9.1,5,11c0.6,0.4,0.9,1,0.9,1.7v48.5c0,1.1,0.9,2,2,2
		c1.1,0,2-0.9,2-2v-48.5c0-0.7,0.4-1.3,0.9-1.7c3-1.9,5-6.2,5-11C209.1,139.6,205.5,134.2,201.3,134.2z"/>
	<path class="donationItem" d="M142.1,165.8c0,1.1,0.9,2,2,2c1.1,0,2-0.9,2-2c0-1.1-0.9-2-2-2C143,163.8,142.1,164.7,142.1,165.8z"/>
</g>
</svg>
