<?xml version="1.0" encoding="utf-8"?>
<!-- Generator: Adobe Illustrator 27.6.1, SVG Export Plug-In . SVG Version: 6.00 Build 0)  -->
<svg version="1.1" id="healthsvg" xmlns="http://www.w3.org/2000/svg" xmlns:xlink="http://www.w3.org/1999/xlink" x="0px" y="0px"
	 viewBox="0 0 300 300" style="enable-background:new 0 0 300 300;" xml:space="preserve">
<style type="text/css">
	.st0{fill:url(#SVGID_1_);}
</style>
<g>
	<linearGradient id="SVGID_1_" gradientUnits="userSpaceOnUse" x1="203.6565" y1="243.1675" x2="85.7808" y2="39.0008">
		<stop  offset="0" style="stop-color:#8254E5"/>
		<stop  offset="1" style="stop-color:#83AFE3"/>
	</linearGradient>
	<path class="st0" d="M165.5,24.6c-23.7,0-45.6,7.4-63.7,20c-1.9-0.2-3.9-0.2-5.8-0.2c-40.3,0-73,32.7-73,73
		c0,24.3,11.9,45.9,30.2,59.1c-6.1,10.2-9.7,22.2-9.7,35c0,37.7,30.5,68.2,68.2,68.2c24.3,0,45.7-12.7,57.7-31.9
		c59.9-2,107.7-51.2,107.7-111.5C277.1,74.6,227.1,24.6,165.5,24.6z"/>
</g>
</svg>
