<?xml version="1.0" encoding="utf-8"?>
<!-- Generator: Adobe Illustrator 27.6.1, SVG Export Plug-In . SVG Version: 6.00 Build 0)  -->
<svg version="1.1" id="healthsvg" xmlns="http://www.w3.org/2000/svg" xmlns:xlink="http://www.w3.org/1999/xlink" x="0px" y="0px"
	 viewBox="0 0 300 300" style="enable-background:new 0 0 300 300;" xml:space="preserve">
<g>
	<path class="donationItem" d="M137,103h5.7c1.4,0,2.5,1.1,2.5,2.5v5.7c0,0.5,0.4,0.8,0.8,0.8h7.9c0.5,0,0.8-0.4,0.8-0.8v-5.7
		c0-1.4,1.1-2.5,2.5-2.5h5.7c0.5,0,0.8-0.4,0.8-0.8v-7.9c0-0.5-0.4-0.8-0.8-0.8h-5.7c-1.4,0-2.5-1.1-2.5-2.5v-5.7
		c0-0.5-0.4-0.8-0.8-0.8H146c-0.5,0-0.8,0.4-0.8,0.8v5.7c0,1.4-1.1,2.5-2.5,2.5H137c-0.5,0-0.8,0.4-0.8,0.8v7.9
		C136.2,102.7,136.6,103,137,103z"/>
	<path class="donationItem" d="M217.2,197h-5.7c-1.4,0-2.5-1.1-2.5-2.5v-5.7c0-0.5-0.4-0.8-0.8-0.8h-7.9c-0.5,0-0.8,0.4-0.8,0.8v5.7
		c0,1.4-1.1,2.5-2.5,2.5h-5.7c-0.5,0-0.8,0.4-0.8,0.8v7.9c0,0.5,0.4,0.8,0.8,0.8h5.7c1.4,0,2.5,1.1,2.5,2.5v5.7
		c0,0.5,0.4,0.8,0.8,0.8h7.9c0.5,0,0.8-0.4,0.8-0.8v-5.7c0-1.4,1.1-2.5,2.5-2.5h5.7c0.5,0,0.8-0.4,0.8-0.8v-7.9
		C218,197.3,217.6,197,217.2,197z"/>
	<path class="donationItem" d="M108.8,197h-5.7c-1.4,0-2.5-1.1-2.5-2.5v-5.7c0-0.5-0.4-0.8-0.8-0.8h-7.9c-0.5,0-0.8,0.4-0.8,0.8v5.7
		c0,1.4-1.1,2.5-2.5,2.5h-5.7c-0.5,0-0.8,0.4-0.8,0.8v7.9c0,0.5,0.4,0.8,0.8,0.8h5.7c1.4,0,2.5,1.1,2.5,2.5v5.7
		c0,0.5,0.4,0.8,0.8,0.8h7.9c0.5,0,0.8-0.4,0.8-0.8v-5.7c0-1.4,1.1-2.5,2.5-2.5h5.7c0.5,0,0.8-0.4,0.8-0.8h0v-7.9
		C109.6,197.3,109.3,197,108.8,197z"/>
	<path class="donationItem" d="M165.5,24.6c-23.7,0-45.6,7.4-63.7,20c-1.9-0.2-3.9-0.2-5.8-0.2c-40.3,0-73,32.7-73,73
		c0,24.3,11.9,45.9,30.2,59.1c-6.1,10.2-9.7,22.2-9.7,35c0,37.7,30.5,68.2,68.2,68.2c24.3,0,45.7-12.7,57.7-31.9
		c59.9-2,107.7-51.2,107.7-111.5C277.1,74.6,227.1,24.6,165.5,24.6z M131.2,94.3c0-3.2,2.6-5.9,5.9-5.9h3.2v-3.2
		c0-3.2,2.6-5.9,5.9-5.9h7.9c3.2,0,5.9,2.6,5.9,5.9v3.2h3.2c3.2,0,5.9,2.6,5.9,5.9v7.9c0,3.2-2.6,5.9-5.9,5.9h-3.2v3.2
		c0,3.2-2.6,5.9-5.9,5.9H146c-3.2,0-5.9-2.6-5.9-5.9v-3.2H137c-3.2,0-5.9-2.6-5.9-5.9V94.3z M114.7,205.7c0,3.2-2.6,5.9-5.9,5.9
		h-3.2v3.2c0,3.2-2.6,5.9-5.9,5.9h-7.9c-3.2,0-5.9-2.6-5.9-5.9v-3.2h-3.2c-3.2,0-5.9-2.6-5.9-5.9v-7.9c0-3.2,2.6-5.9,5.9-5.9H86
		v-3.2c0-3.2,2.6-5.9,5.9-5.9h7.9c3.2,0,5.9,2.6,5.9,5.9v3.2h3.2c3.2,0,5.9,2.6,5.9,5.9V205.7z M223,205.7c0,3.2-2.6,5.9-5.9,5.9
		H214v3.2c0,3.2-2.6,5.9-5.9,5.9h-7.9c-3.2,0-5.9-2.6-5.9-5.9v-3.2h-3.2c-3.2,0-5.9-2.6-5.9-5.9v-7.9c0-3.2,2.6-5.9,5.9-5.9h3.2
		v-3.2c0-3.2,2.6-5.9,5.9-5.9h7.9c3.2,0,5.9,2.6,5.9,5.9v3.2h3.2c3.2,0,5.9,2.6,5.9,5.9V205.7z M233.1,162.8
		c-15.4,10.9-32.4,12.7-41.3,12.7l-10.1,10.1c-1,1-2.6,1-3.5,0c-1-1-1-2.6,0-3.5l10.5-10.5c4.8-4.8,7.5-11.2,7.5-18
		s-2.6-13.2-7.5-18c-4.8-4.8-11.2-7.5-18-7.5c-6.8,0-13.2,2.6-18,7.5l-0.9,0.9c-0.5,0.5-1.1,0.7-1.8,0.7c-0.7,0-1.3-0.3-1.8-0.7
		l-0.9-0.9c-9.9-9.9-26.1-9.9-36,0c-9.9,9.9-9.9,26.1,0,36l38.1,38.1c0.4,0.4,1,0.4,1.4,0l19.8-19.8c1-1,2.6-1,3.5,0
		c1,1,1,2.6,0,3.5l-19.8,19.8c-1.2,1.2-2.7,1.7-4.2,1.7s-3.1-0.6-4.2-1.7l-37.6-37.6c-4,0-10-0.4-16.9-2c-1.3-0.3-2.2-1.7-1.9-3
		c0.3-1.3,1.7-2.2,3-1.9c4.3,1,8.3,1.5,11.5,1.7c-4.7-7.2-6.1-15.9-4.2-24c-2.7-0.6-5.2-0.3-7.3,0.8c-0.1,0-0.1,0.1-0.2,0.1l0,0l0,0
		c-0.1,0-1.9,0.9-3,3.6c-0.4,1-1.3,1.6-2.3,1.6c-0.3,0-0.6-0.1-0.9-0.2c-1.3-0.5-1.9-1.9-1.4-3.2c1.2-3.1,3.2-4.9,4.5-5.7l6.5-26.5
		c0.3-1.1,1.2-1.9,2.3-1.9c1.1,0,2.1,0.7,2.5,1.7c0.1,0.4,0.4,0.8,0.7,1.1c0.7,0.7,1.7,1,2.6,0.7l5.8-1.9c2.3-0.8,3.6-3.2,3-5.5
		l-1.6-6.1c-0.6-2.2-2.7-3.7-5-3.4l-10.5,1.3c-0.3,0-0.6,0.1-0.8,0.3c-8.3,5.3-18.7,32.8-25,54.8c-0.1,0.3,0,0.7,0.3,0.9
		c3.8,2.7,8,5,12.4,6.8c1.3,0.5,1.9,2,1.4,3.3c-0.4,1-1.3,1.6-2.3,1.6c-0.3,0-0.6-0.1-0.9-0.2c-4.8-1.9-9.3-4.4-13.4-7.3
		c-2-1.5-2.9-4-2.3-6.4c1.4-4.8,5.1-17.2,9.9-29.3c6.2-15.6,11.8-24.9,17.2-28.3c0.9-0.6,1.9-0.9,2.9-1l10.5-1.3
		c4.8-0.6,9.2,2.5,10.5,7.1l1.6,6.1c1.3,4.9-1.5,9.9-6.2,11.5l-5.8,1.9c-2,0.7-4.1,0.4-5.9-0.5l-4.5,18.6c1.9-0.3,4-0.2,6.5,0.4
		c1.5-3.5,3.6-6.7,6.5-9.6c11.6-11.6,30.3-11.9,42.3-0.8c11.9-11.1,30.7-10.8,42.3,0.8c2.8,2.8,5,6,6.5,9.6c2.5-0.6,4.7-0.6,6.5-0.4
		l-4.5-18.6c-1.8,1-3.9,1.2-5.9,0.5l-5.8-1.9c-4.8-1.6-7.5-6.6-6.2-11.5l1.6-6.1c1.2-4.6,5.7-7.7,10.5-7.1l10.5,1.3
		c1.1,0.1,2.1,0.5,2.9,1c3.3,2.1,6.6,6.4,10.2,13c0.7,1.2,0.2,2.7-1,3.4c-1.2,0.7-2.7,0.2-3.4-1c-3.9-7.2-6.8-10.1-8.5-11.2
		c-0.2-0.2-0.5-0.3-0.8-0.3l-10.5-1.3c-2.3-0.3-4.4,1.2-5,3.4l-1.6,6.1c-0.6,2.3,0.7,4.7,3,5.5l5.8,1.9c0.9,0.3,2,0,2.6-0.7
		c0.3-0.3,0.5-0.7,0.7-1.1c0.4-1.1,1.4-1.8,2.5-1.7c1.1,0,2.1,0.8,2.3,1.9l6.5,26.5c1.3,0.9,3.3,2.6,4.5,5.7
		c0.5,1.3-0.2,2.7-1.4,3.2c-0.3,0.1-0.6,0.2-0.9,0.2c-1,0-2-0.6-2.3-1.6c-1-2.7-2.9-3.6-2.9-3.6c-0.1,0-0.1,0-0.1-0.1c0,0,0,0-0.1,0
		c-2.1-1.1-4.5-1.4-7.2-0.8c0.6,2.3,0.9,4.8,0.9,7.2c0,6.1-1.8,11.9-5,16.8c8.8-0.6,22-3,34.1-11.6c0.3-0.2,0.4-0.6,0.3-0.9
		c-1.7-5.8-6.2-20.7-11.9-33.8c-0.5-1.3,0-2.7,1.3-3.3c1.3-0.5,2.7,0,3.3,1.3c5.8,13.4,10.4,28.5,12.1,34.4h0
		C236.1,158.8,235.2,161.4,233.1,162.8z M138.6,170.6c1.2-0.7,2.7-0.4,3.5,0.8c1.7,2.7,4.7,4.4,7.9,4.4c3.2,0,6.2-1.6,7.9-4.4
		c0.7-1.2,2.3-1.5,3.5-0.8c1.2,0.7,1.5,2.3,0.8,3.5c-2.6,4.2-7.2,6.7-12.1,6.7s-9.5-2.5-12.1-6.7
		C137.1,172.9,137.5,171.4,138.6,170.6z M135.1,161.5v-1.7c0-1.4,1.1-2.5,2.5-2.5s2.5,1.1,2.5,2.5v1.7c0,1.4-1.1,2.5-2.5,2.5
		S135.1,162.9,135.1,161.5z M162.3,164c-1.4,0-2.5-1.1-2.5-2.5v-1.7c0-1.4,1.1-2.5,2.5-2.5s2.5,1.1,2.5,2.5v1.7
		C164.9,162.9,163.7,164,162.3,164z"/>
</g>
</svg>
