<?xml version="1.0" encoding="utf-8"?>
<!-- Generator: Adobe Illustrator 27.6.1, SVG Export Plug-In . SVG Version: 6.00 Build 0)  -->
<svg version="1.1" id="wellsvg" xmlns="http://www.w3.org/2000/svg" xmlns:xlink="http://www.w3.org/1999/xlink" x="0px" y="0px"
	 viewBox="0 0 300 300" style="enable-background:new 0 0 300 300;" xml:space="preserve">
<style type="text/css">
	.st0{fill:url(#SVGID_1_);}
</style>
<g>
	<linearGradient id="SVGID_1_" gradientUnits="userSpaceOnUse" x1="5.9316" y1="305.3684" x2="298.5849" y2="12.7151">
		<stop  offset="0" style="stop-color:#FF9A9E"/>
		<stop  offset="1" style="stop-color:#FAD0C4"/>
	</linearGradient>
	<path class="st0" d="M255.4,181.2c6.7-13.4,10.4-28.5,10.4-44.3c0-57.3-48.6-103.7-108.6-103.7c-5.3,0-10.5,0.4-15.6,1.1
		C129.4,21,111.4,12.6,91.3,12.6c-37.1,0-67.2,28.7-67.2,64.1c0,11.8,3.4,22.9,9.2,32.5C17,127.3,7.1,150.9,7.1,176.7
		c0,57.3,48.6,103.7,108.6,103.7c16.9,0,32.8-3.7,47.1-10.2c12,17.6,32.7,29.3,56.4,29.3c37.1,0,67.2-28.7,67.2-64.1
		C286.4,212.6,274,192.6,255.4,181.2z"/>
</g>
</svg>
