<?xml version="1.0" encoding="utf-8"?>
<!-- Generator: Adobe Illustrator 27.6.1, SVG Export Plug-In . SVG Version: 6.00 Build 0)  -->
<svg version="1.1" id="Calque_1" xmlns="http://www.w3.org/2000/svg" xmlns:xlink="http://www.w3.org/1999/xlink" x="0px" y="0px"
	 viewBox="0 0 300 300" style="enable-background:new 0 0 300 300;" xml:space="preserve">
<style type="text/css">
	.st0{fill:#FFFFFF;}
</style>
<g>
	<rect x="101.2" y="73.2" class="st0" width="8.1" height="80.4"/>
	<rect x="94.6" y="160.1" class="st0" width="110.7" height="8.1"/>
	<polygon class="st0" points="141.5,138.9 158.5,138.9 161,116.1 139,116.1 	"/>
	<rect x="190.7" y="73.2" class="st0" width="8.1" height="80.4"/>
	<path class="st0" d="M184.2,86.2h-30.9v23.4h11.4c0.9,0,1.8,0.4,2.4,1.1c0.6,0.7,0.9,1.6,0.8,2.5l-3.3,29.3
		c-0.2,1.6-1.6,2.9-3.2,2.9h-22.8c-1.7,0-3.1-1.2-3.2-2.9l-3.3-29.3c-0.1-0.9,0.2-1.8,0.8-2.5c0.6-0.7,1.5-1.1,2.4-1.1h11.4V86.2
		h-30.9v67.4h68.4V86.2z"/>
	<path class="st0" d="M255.4,181.2c6.7-13.4,10.4-28.5,10.4-44.3c0-57.3-48.6-103.7-108.6-103.7c-5.3,0-10.5,0.4-15.6,1.1
		C129.4,21,111.4,12.6,91.3,12.6c-37.1,0-67.2,28.7-67.2,64.1c0,11.8,3.4,22.9,9.2,32.5c-16.3,18.1-26.2,41.7-26.2,67.5
		c0,57.3,48.6,103.7,108.6,103.7c16.9,0,32.8-3.7,47.1-10.2c12,17.6,32.7,29.3,56.4,29.3c37.1,0,67.2-28.7,67.2-64.1
		C286.4,212.6,274,192.6,255.4,181.2z M221.6,233.4H78.4c-1.8,0-3.3-1.5-3.3-3.3c0-1.8,1.5-3.3,3.3-3.3h16.3v-52.1h-3.3
		c-1.8,0-3.3-1.5-3.3-3.3v-14.7c0-1.8,1.5-3.3,3.3-3.3h3.3V86.2h-6.5v16.3c0,1.8-1.5,3.3-3.3,3.3h-6.5c-1.8,0-3.3-1.5-3.3-3.3
		c0-1.8,1.5-3.3,3.3-3.3h3.3V82.9c0-1.8,1.5-3.3,3.3-3.3h9.8v-9.8c0-1.8,1.5-3.3,3.3-3.3h14.7c1.8,0,3.3,1.5,3.3,3.3v9.8h68.4v-9.8
		c0-1.8,1.5-3.3,3.3-3.3h14.7c1.8,0,3.3,1.5,3.3,3.3v83.7h3.3c1.8,0,3.3,1.5,3.3,3.3v14.7c0,1.8-1.5,3.3-3.3,3.3h-3.3v52.1h16.3
		c1.8,0,3.3,1.5,3.3,3.3C224.9,231.9,223.4,233.4,221.6,233.4z"/>
	<path class="st0" d="M101.2,182.9h8.1c1.8,0,3.3,1.5,3.3,3.3s-1.5,3.3-3.3,3.3h-8.1v37.4h97.7v-22.8h-7.1c-1.8,0-3.3-1.5-3.3-3.3
		c0-1.8,1.5-3.3,3.3-3.3h7.1v-22.8h-97.7V182.9z M175.6,218.7h-9.8c-1.8,0-3.3-1.5-3.3-3.3c0-1.8,1.5-3.3,3.3-3.3h9.8
		c1.8,0,3.3,1.5,3.3,3.3C178.8,217.2,177.4,218.7,175.6,218.7z M163.7,182.9h11.9c1.8,0,3.3,1.5,3.3,3.3s-1.5,3.3-3.3,3.3h-11.9
		c-1.8,0-3.3-1.5-3.3-3.3S161.9,182.9,163.7,182.9z M140.3,197.5h8.5c1.8,0,3.3,1.5,3.3,3.3c0,1.8-1.5,3.3-3.3,3.3h-8.5
		c-1.8,0-3.3-1.5-3.3-3.3C137,199,138.5,197.5,140.3,197.5z M124.4,212.2c1.8,0,3.3,1.5,3.3,3.3c0,1.8-1.5,3.3-3.3,3.3h-9.8
		c-1.8,0-3.3-1.5-3.3-3.3c0-1.8,1.5-3.3,3.3-3.3H124.4z"/>
</g>
</svg>
