<?xml version="1.0" encoding="utf-8"?>
<!-- Generator: Adobe Illustrator 24.2.1, SVG Export Plug-In . SVG Version: 6.00 Build 0)  -->
<svg version="1.1" id="wave" xmlns="http://www.w3.org/2000/svg" xmlns:xlink="http://www.w3.org/1999/xlink" x="0px" y="0px"
	 viewBox="0 0 1440 250" style="enable-background:new 0 0 1440 250;" xml:space="preserve">
<style type="text/css">
	.st0{opacity:0.9;fill:url(#SVGID_1_);enable-background:new    ;}
	.st1{opacity:0.9;fill:url(#SVGID_2_);enable-background:new    ;}
</style>
<linearGradient id="SVGID_1_" gradientUnits="userSpaceOnUse" x1="2880.49" y1="214.4349" x2="2878.49" y2="53.4349">
	<stop  offset="0" style="stop-color:#FFFFFF"/>
	<stop  offset="1" style="stop-color:#151D2D"/>
</linearGradient>
<path class="st0" d="M0,200l40,4.2c40,3.8,120,12.8,200-20.9C320,150,400,75,480,70.8c80-3.8,160,62.2,240,62.5
	C800,133,880,67,960,62.5s160,54.5,240,62.5s160-33,240-62.5s160-45.5,240-25s160,79.5,240,83.3c80,4.2,160-45.8,240-37.5
	c80,8.7,160,74.7,240,108.4c80,33.3,160,33.3,240-4.2S2800,75,2880,50s160,0,240,33.3c80,33.7,160,74.7,240,87.5
	c80,12.2,160-3.8,240-12.5c80-8.3,160-8.3,240-33.3s160-75,240-87.5s160,12.5,240,50S4480,175,4560,200s160,25,240,12.5
	s160-37.5,240-70.8c80-33.7,160-74.7,240-70.9c80,4.2,160,54.2,240,66.7s160-12.5,200-25l40-12.5v150h-40c-40,0-120,0-200,0
	s-160,0-240,0s-160,0-240,0s-160,0-240,0s-160,0-240,0s-160,0-240,0s-160,0-240,0s-160,0-240,0s-160,0-240,0s-160,0-240,0
	s-160,0-240,0s-160,0-240,0s-160,0-240,0s-160,0-240,0s-160,0-240,0s-160,0-240,0s-160,0-240,0s-160,0-240,0s-160,0-240,0
	s-160,0-240,0s-160,0-240,0s-160,0-240,0s-160,0-240,0s-160,0-200,0H0V200z"/>
<linearGradient id="SVGID_2_" gradientUnits="userSpaceOnUse" x1="2880.645" y1="214.433" x2="2878.645" y2="53.433">
	<stop  offset="0" style="stop-color:#FFFFFF"/>
	<stop  offset="1" style="stop-color:#151D2D"/>
</linearGradient>
<path class="st1" d="M0,175l40,8.3c40,8.7,120,24.7,200,0C320,158,400,92,480,75s160,17,240,20.8C800,100,880,75,960,79.2
	c80,3.8,160,37.8,240,66.6c80,29.2,160,54.2,240,54.2s160-25,240-45.8c80-21.2,160-37.2,240-50c80-12.2,160-21.2,240-37.5
	c80-16.7,160-41.7,240-37.5c80,3.8,160,37.8,240,70.8s160,67,240,54.2c80-12.2,160-71.2,240-70.9c80-0.3,160,58.7,240,79.2
	s160,4.5,240-4.2c80-8.3,160-8.3,240-33.3s160-75,240-66.7c80,8.7,160,74.7,240,91.7s160-17,240-37.5s160-29.5,240-16.7
	c80,12.2,160,46.2,240,66.7s160,29.5,240,0S5440,67,5520,45.8c80-20.8,160,4.2,200,16.7l40,12.5v175h-40c-40,0-120,0-200,0
	s-160,0-240,0s-160,0-240,0s-160,0-240,0s-160,0-240,0s-160,0-240,0s-160,0-240,0s-160,0-240,0s-160,0-240,0s-160,0-240,0
	s-160,0-240,0s-160,0-240,0s-160,0-240,0s-160,0-240,0s-160,0-240,0s-160,0-240,0s-160,0-240,0s-160,0-240,0s-160,0-240,0
	s-160,0-240,0s-160,0-240,0s-160,0-240,0s-160,0-240,0s-160,0-200,0H0V175z"/>
</svg>
