<?xml version="1.0" encoding="utf-8"?>
<!-- Generator: Adobe Illustrator 24.2.1, SVG Export Plug-In . SVG Version: 6.00 Build 0)  -->
<svg version="1.1" id="wave" xmlns="http://www.w3.org/2000/svg" xmlns:xlink="http://www.w3.org/1999/xlink" x="0px" y="0px"
	 viewBox="0 0 1440 250" style="enable-background:new 0 0 1440 250;" xml:space="preserve">
<style type="text/css">
	.st0{fill:url(#SVGID_1_);}
	.st1{fill:url(#SVGID_2_);}
</style>
<linearGradient id="SVGID_1_" gradientUnits="userSpaceOnUse" x1="3456" y1="1.5957" x2="3456" y2="177.1204">
	<stop  offset="0" style="stop-color:#FFFFFF"/>
	<stop  offset="1" style="stop-color:#424256"/>
</linearGradient>
<path class="st0" d="M6912,150l-48-8.3c-48-8.7-144-24.7-240-12.5c-96,12.8-192,53.8-288,54.1c-96-0.3-192-41.3-288-62.5
	c-96-20.8-192-20.8-288-25c-96-3.8-192-12.8-288,12.5c-96,24.7-192,83.7-288,83.4c-96,0.3-192-58.7-288-75
	c-96-16.7-192,8.3-288,20.8S4416,150,4320,150s-192,0-288,4.2c-96,3.8-192,12.8-288,12.5c-96,0.3-192-8.7-288-33.4
	c-96-25.3-192-66.3-288-79.1c-96-12.2-192,3.8-288,37.5c-96,33.3-192,83.3-288,104.1c-96,21.2-192,12.2-288-16.6
	c-96-29.2-192-79.2-288-75c-96,3.8-192,62.8-288,87.5c-96,25.3-192,16.3-288,0c-96-16.7-192-41.7-288-50c-96-8.7-192,0.3-288,0
	c-96,0.3-192-8.7-288-4.2S384,158,288,170.8C192,183,96,192,48,195.8L0,200V0h48c48,0,144,0,240,0s192,0,288,0s192,0,288,0
	s192,0,288,0s192,0,288,0s192,0,288,0s192,0,288,0s192,0,288,0s192,0,288,0s192,0,288,0s192,0,288,0s192,0,288,0s192,0,288,0
	s192,0,288,0s192,0,288,0s192,0,288,0s192,0,288,0s192,0,288,0s192,0,288,0s192,0,288,0s192,0,288,0s192,0,288,0s192,0,288,0
	s192,0,240,0h48V150z"/>
<linearGradient id="SVGID_2_" gradientUnits="userSpaceOnUse" x1="3456" y1="1.5957" x2="3456" y2="177.1204">
	<stop  offset="0" style="stop-color:#FFFFFF"/>
	<stop  offset="1" style="stop-color:#424256"/>
</linearGradient>
<path class="st1" d="M6912,50l-48,12.5c-48,12.5-144,37.5-240,45.8c-96,8.7-192-0.3-288,8.4c-96,8.3-192,33.3-288,25
	C5952,133,5856,92,5760,75s-192-8-288-12.5s-192-20.5-288,8.3c-96,29.2-192,104.2-288,120.9c-96,16.3-192-24.7-288-45.9
	c-96-20.8-192-20.8-288-33.3S4128,75,4032,58.3c-96-16.3-192-25.3-288,8.4C3648,100,3552,175,3456,175s-192-75-288-75
	s-192,75-288,108.3c-96,33.7-192,24.7-288,12.5c-96-12.8-192-28.8-288-37.5c-96-8.3-192-8.3-288-33.3s-192-75-288-79.2
	c-96-3.8-192,37.2-288,41.7S1248,83,1152,75s-192,8-288,29.2C768,125,672,150,576,145.8C480,142,384,108,288,87.5S96,58,48,54.2
	L0,50V0h48c48,0,144,0,240,0s192,0,288,0s192,0,288,0s192,0,288,0s192,0,288,0s192,0,288,0s192,0,288,0s192,0,288,0s192,0,288,0
	s192,0,288,0s192,0,288,0s192,0,288,0s192,0,288,0s192,0,288,0s192,0,288,0s192,0,288,0s192,0,288,0s192,0,288,0s192,0,288,0
	s192,0,288,0s192,0,288,0s192,0,288,0s192,0,288,0s192,0,240,0h48V50z"/>
</svg>
