<?xml version="1.0" encoding="utf-8"?>
<!-- Generator: Adobe Illustrator 25.0.0, SVG Export Plug-In . SVG Version: 6.00 Build 0)  -->
<svg version="1.1" id="Calque_1" xmlns="http://www.w3.org/2000/svg" xmlns:xlink="http://www.w3.org/1999/xlink" x="0px" y="0px"
	 viewBox="0 0 1506 314.9" style="enable-background:new 0 0 1506 314.9;" xml:space="preserve">
<style type="text/css">
	.st0{fill:#4A75CC;}
	.st1{fill:#5784F2;}
</style>
<path class="st0" d="M738.8,238.7C621.8,303.3,506,277.1,506,277.1v37.8h1000V0c-42.5,129.3-111,44.1-278.3,75.2
	C1104.8,98,1057.2,215.7,948.5,195.4S738.8,238.7,738.8,238.7z"/>
<path class="st1" d="M506,260.7c0,0,136.1-76.6,334.5,0s254.8-3.3,320.8-66.7c46.2-44.4,151.8-59,221.3-54.4s123.4-9.2,123.4-9.2
	v184.4H397.7c-0.9,0-1.2-1.2-0.4-1.6L506,260.7z"/>
</svg>
